<svg xmlns="http://www.w3.org/2000/svg" width="1280" height="640" viewBox="0 0 1280 640" role="img">
  <defs>
    <linearGradient id="bg" x1="0" y1="0" x2="1" y2="1">
      <stop offset="0%" stop-color="#0f141c"/>
      <stop offset="54%" stop-color="#121b26"/>
      <stop offset="100%" stop-color="#15151e"/>
    </linearGradient>
    <filter id="shadow" x="-20%" y="-20%" width="140%" height="140%">
      <feDropShadow dx="0" dy="12" stdDeviation="14" flood-color="#05070a" flood-opacity="0.38"/>
    </filter>
    <marker id="arrow-teal" markerWidth="10" markerHeight="10" refX="8" refY="5" orient="auto">
      <path d="M 0 0 L 10 5 L 0 10 z" fill="#3dd6d0"/>
    </marker>
    <marker id="arrow-gold" markerWidth="10" markerHeight="10" refX="8" refY="5" orient="auto">
      <path d="M 0 0 L 10 5 L 0 10 z" fill="#f5b94f"/>
    </marker>
    <marker id="arrow-coral" markerWidth="10" markerHeight="10" refX="8" refY="5" orient="auto">
      <path d="M 0 0 L 10 5 L 0 10 z" fill="#f17666"/>
    </marker>
    <style>
      .title { font: 700 34px Inter, ui-sans-serif, system-ui, sans-serif; fill: #f4f0e8; }
      .subtitle { font: 500 17px Inter, ui-sans-serif, system-ui, sans-serif; fill: #aeb8c5; }
      .label { font: 700 18px Inter, ui-sans-serif, system-ui, sans-serif; fill: #f4f0e8; }
      .small { font: 600 14px Inter, ui-sans-serif, system-ui, sans-serif; fill: #aeb8c5; }
      .tiny { font: 600 12px Inter, ui-sans-serif, system-ui, sans-serif; fill: #aeb8c5; }
      .mono { font: 700 13px ui-monospace, SFMono-Regular, Menlo, Consolas, monospace; fill: #f4f0e8; }
      .panel { fill: #17202c; stroke: #324254; stroke-width: 1.2; filter: url(#shadow); }
      .panel2 { fill: #1d2836; stroke: #3a4b61; stroke-width: 1.1; }
      .wire { fill: none; stroke-linecap: round; stroke-linejoin: round; }
    </style>
  </defs>
  <rect width="1280" height="640" fill="url(#bg)"/>

  <title>Chess project interface modes</title>
  <text x="56" y="66" class="title">Interactive chess modes</text>
  <text x="56" y="98" class="subtitle">The package exposes a free-play sandbox and a human-vs-minimax mode through the same YAML-backed CLI.</text>

  <rect x="58" y="148" width="288" height="344" rx="16" class="panel"/>
  <text x="88" y="190" class="label">CLI entrypoint</text>
  <text x="88" y="222" class="mono">chess play</text>
  <text x="88" y="250" class="mono">chess play-ai --depth 4</text>
  <text x="88" y="298" class="small">Config: configs/default.yaml</text>
  <text x="88" y="322" class="small">Depth flag adjusts search.</text>
  <text x="88" y="370" class="small">Rich logs show runtime state.</text>
  <rect x="86" y="408" width="232" height="40" rx="8" fill="#101923" stroke="#3dd6d0"/>
  <text x="202" y="434" text-anchor="middle" class="mono">src/chess/cli.py</text>

  <path d="M 346 260 L 424 260" class="wire" stroke="#3dd6d0" stroke-width="3" marker-end="url(#arrow-teal)"/>
  <path d="M 346 380 L 424 380" class="wire" stroke="#f5b94f" stroke-width="3" marker-end="url(#arrow-gold)"/>

  <rect x="426" y="134" width="754" height="390" rx="18" class="panel"/>
  
  <g>
    <rect x="450" y="162" width="304" height="304"
          rx="12" fill="#0b1118" stroke="#3d4d60"/>
    <rect x="458" y="170" width="36" height="36" fill="#efe4cd"/>
    <rect x="494" y="170" width="36" height="36" fill="#496173"/>
    <rect x="530" y="170" width="36" height="36" fill="#efe4cd"/>
    <rect x="566" y="170" width="36" height="36" fill="#496173"/>
    <rect x="602" y="170" width="36" height="36" fill="#efe4cd"/>
    <rect x="638" y="170" width="36" height="36" fill="#496173"/>
    <rect x="674" y="170" width="36" height="36" fill="#efe4cd"/>
    <rect x="710" y="170" width="36" height="36" fill="#496173"/>
    <rect x="458" y="206" width="36" height="36" fill="#496173"/>
    <rect x="494" y="206" width="36" height="36" fill="#efe4cd"/>
    <rect x="530" y="206" width="36" height="36" fill="#496173"/>
    <rect x="566" y="206" width="36" height="36" fill="#efe4cd"/>
    <rect x="602" y="206" width="36" height="36" fill="#496173"/>
    <rect x="638" y="206" width="36" height="36" fill="#efe4cd"/>
    <rect x="674" y="206" width="36" height="36" fill="#496173"/>
    <rect x="710" y="206" width="36" height="36" fill="#efe4cd"/>
    <rect x="458" y="242" width="36" height="36" fill="#efe4cd"/>
    <rect x="494" y="242" width="36" height="36" fill="#496173"/>
    <rect x="530" y="242" width="36" height="36" fill="#efe4cd"/>
    <rect x="566" y="242" width="36" height="36" fill="#496173"/>
    <rect x="602" y="242" width="36" height="36" fill="#efe4cd"/>
    <rect x="638" y="242" width="36" height="36" fill="#496173"/>
    <rect x="674" y="242" width="36" height="36" fill="#efe4cd"/>
    <rect x="710" y="242" width="36" height="36" fill="#496173"/>
    <rect x="458" y="278" width="36" height="36" fill="#496173"/>
    <rect x="494" y="278" width="36" height="36" fill="#efe4cd"/>
    <rect x="530" y="278" width="36" height="36" fill="#496173"/>
    <rect x="566" y="278" width="36" height="36" fill="#efe4cd"/>
    <rect x="602" y="278" width="36" height="36" fill="#496173"/>
    <rect x="638" y="278" width="36" height="36" fill="#efe4cd"/>
    <rect x="674" y="278" width="36" height="36" fill="#496173"/>
    <rect x="710" y="278" width="36" height="36" fill="#efe4cd"/>
    <rect x="458" y="314" width="36" height="36" fill="#efe4cd"/>
    <rect x="494" y="314" width="36" height="36" fill="#496173"/>
    <rect x="530" y="314" width="36" height="36" fill="#efe4cd"/>
    <rect x="566" y="314" width="36" height="36" fill="#496173"/>
    <rect x="602" y="314" width="36" height="36" fill="#efe4cd"/>
    <rect x="638" y="314" width="36" height="36" fill="#496173"/>
    <rect x="674" y="314" width="36" height="36" fill="#efe4cd"/>
    <rect x="710" y="314" width="36" height="36" fill="#496173"/>
    <rect x="458" y="350" width="36" height="36" fill="#496173"/>
    <rect x="494" y="350" width="36" height="36" fill="#efe4cd"/>
    <rect x="530" y="350" width="36" height="36" fill="#496173"/>
    <rect x="566" y="350" width="36" height="36" fill="#efe4cd"/>
    <rect x="602" y="350" width="36" height="36" fill="#496173"/>
    <rect x="638" y="350" width="36" height="36" fill="#efe4cd"/>
    <rect x="674" y="350" width="36" height="36" fill="#496173"/>
    <rect x="710" y="350" width="36" height="36" fill="#efe4cd"/>
    <rect x="458" y="386" width="36" height="36" fill="#efe4cd"/>
    <rect x="494" y="386" width="36" height="36" fill="#496173"/>
    <rect x="530" y="386" width="36" height="36" fill="#efe4cd"/>
    <rect x="566" y="386" width="36" height="36" fill="#496173"/>
    <rect x="602" y="386" width="36" height="36" fill="#efe4cd"/>
    <rect x="638" y="386" width="36" height="36" fill="#496173"/>
    <rect x="674" y="386" width="36" height="36" fill="#efe4cd"/>
    <rect x="710" y="386" width="36" height="36" fill="#496173"/>
    <rect x="458" y="422" width="36" height="36" fill="#496173"/>
    <rect x="494" y="422" width="36" height="36" fill="#efe4cd"/>
    <rect x="530" y="422" width="36" height="36" fill="#496173"/>
    <rect x="566" y="422" width="36" height="36" fill="#efe4cd"/>
    <rect x="602" y="422" width="36" height="36" fill="#496173"/>
    <rect x="638" y="422" width="36" height="36" fill="#efe4cd"/>
    <rect x="674" y="422" width="36" height="36" fill="#496173"/>
    <rect x="710" y="422" width="36" height="36" fill="#efe4cd"/>
    <text x="476.0" y="192.9" text-anchor="middle" style="fill: #111820; font: 700 13px ui-monospace, SFMono-Regular, Menlo, Consolas, monospace;">R</text>
    <text x="512.0" y="192.9" text-anchor="middle" style="fill: #111820; font: 700 13px ui-monospace, SFMono-Regular, Menlo, Consolas, monospace;">N</text>
    <text x="548.0" y="192.9" text-anchor="middle" style="fill: #111820; font: 700 13px ui-monospace, SFMono-Regular, Menlo, Consolas, monospace;">B</text>
    <text x="584.0" y="192.9" text-anchor="middle" style="fill: #111820; font: 700 13px ui-monospace, SFMono-Regular, Menlo, Consolas, monospace;">Q</text>
    <text x="620.0" y="192.9" text-anchor="middle" style="fill: #111820; font: 700 13px ui-monospace, SFMono-Regular, Menlo, Consolas, monospace;">K</text>
    <text x="656.0" y="192.9" text-anchor="middle" style="fill: #111820; font: 700 13px ui-monospace, SFMono-Regular, Menlo, Consolas, monospace;">B</text>
    <text x="692.0" y="192.9" text-anchor="middle" style="fill: #111820; font: 700 13px ui-monospace, SFMono-Regular, Menlo, Consolas, monospace;">N</text>
    <text x="728.0" y="192.9" text-anchor="middle" style="fill: #111820; font: 700 13px ui-monospace, SFMono-Regular, Menlo, Consolas, monospace;">R</text>
    <text x="620.0" y="300.9" text-anchor="middle" style="fill: #111820; font: 700 13px ui-monospace, SFMono-Regular, Menlo, Consolas, monospace;">P</text>
    <text x="620.0" y="336.9" text-anchor="middle" style="fill: #f9f4e9; font: 700 13px ui-monospace, SFMono-Regular, Menlo, Consolas, monospace;">P</text>
    <text x="548.0" y="372.9" text-anchor="middle" style="fill: #f9f4e9; font: 700 13px ui-monospace, SFMono-Regular, Menlo, Consolas, monospace;">B</text>
    <text x="656.0" y="372.9" text-anchor="middle" style="fill: #f9f4e9; font: 700 13px ui-monospace, SFMono-Regular, Menlo, Consolas, monospace;">N</text>
    <text x="476.0" y="408.9" text-anchor="middle" style="fill: #f9f4e9; font: 700 13px ui-monospace, SFMono-Regular, Menlo, Consolas, monospace;">P</text>
    <text x="512.0" y="408.9" text-anchor="middle" style="fill: #f9f4e9; font: 700 13px ui-monospace, SFMono-Regular, Menlo, Consolas, monospace;">P</text>
    <text x="548.0" y="408.9" text-anchor="middle" style="fill: #f9f4e9; font: 700 13px ui-monospace, SFMono-Regular, Menlo, Consolas, monospace;">P</text>
    <text x="656.0" y="408.9" text-anchor="middle" style="fill: #f9f4e9; font: 700 13px ui-monospace, SFMono-Regular, Menlo, Consolas, monospace;">P</text>
    <text x="692.0" y="408.9" text-anchor="middle" style="fill: #f9f4e9; font: 700 13px ui-monospace, SFMono-Regular, Menlo, Consolas, monospace;">P</text>
    <text x="728.0" y="408.9" text-anchor="middle" style="fill: #f9f4e9; font: 700 13px ui-monospace, SFMono-Regular, Menlo, Consolas, monospace;">P</text>
    <text x="476.0" y="444.9" text-anchor="middle" style="fill: #f9f4e9; font: 700 13px ui-monospace, SFMono-Regular, Menlo, Consolas, monospace;">R</text>
    <text x="512.0" y="444.9" text-anchor="middle" style="fill: #f9f4e9; font: 700 13px ui-monospace, SFMono-Regular, Menlo, Consolas, monospace;">N</text>
    <text x="548.0" y="444.9" text-anchor="middle" style="fill: #f9f4e9; font: 700 13px ui-monospace, SFMono-Regular, Menlo, Consolas, monospace;">B</text>
    <text x="584.0" y="444.9" text-anchor="middle" style="fill: #f9f4e9; font: 700 13px ui-monospace, SFMono-Regular, Menlo, Consolas, monospace;">Q</text>
    <text x="620.0" y="444.9" text-anchor="middle" style="fill: #f9f4e9; font: 700 13px ui-monospace, SFMono-Regular, Menlo, Consolas, monospace;">K</text>
    <text x="656.0" y="444.9" text-anchor="middle" style="fill: #f9f4e9; font: 700 13px ui-monospace, SFMono-Regular, Menlo, Consolas, monospace;">B</text>
    <text x="728.0" y="444.9" text-anchor="middle" style="fill: #f9f4e9; font: 700 13px ui-monospace, SFMono-Regular, Menlo, Consolas, monospace;">R</text>
    
  <rect x="602" y="314" width="36" height="36"
        fill="#f5b94f" opacity="0.35"/>
  <path d="M 620.0 404.0 L 620.0 332.0"
        class="wire" stroke="#f5b94f" stroke-width="5" marker-end="url(#arrow-gold)"/>
  </g>

  <rect x="786" y="170" width="354" height="144" rx="14" fill="#111a24" stroke="#3dd6d0"/>
  <text x="814" y="204" class="label">Sandbox</text>
  <text x="814" y="232" class="small">Drag pieces on the board.</text>
  <text x="814" y="256" class="small">Add any piece from the panel.</text>
  <text x="814" y="280" class="small">Toggle new-piece color from the side panel.</text>

  <rect x="786" y="344" width="354" height="132" rx="14" fill="#141a22" stroke="#f5b94f"/>
  <text x="814" y="378" class="label">Vs AI</text>
  <text x="814" y="406" class="small">You play White; AI is Black.</text>
  <text x="814" y="430" class="small">Search runs in a worker thread.</text>
  <text x="814" y="454" class="small">Layout derives from square_size.</text>

  <rect x="98" y="540" width="1032" height="54" rx="14" fill="#101923" stroke="#34475b"/>
  <text x="128" y="574" class="small">Core constants: 8 x 8 board, monospace piece glyphs, configurable square size from 40 to 200 pixels.</text>

</svg>
