<svg xmlns="http://www.w3.org/2000/svg" width="1280" height="640" viewBox="0 0 1280 640" role="img">
  <defs>
    <linearGradient id="bg" x1="0" y1="0" x2="1" y2="1">
      <stop offset="0%" stop-color="#0f141c"/>
      <stop offset="54%" stop-color="#121b26"/>
      <stop offset="100%" stop-color="#15151e"/>
    </linearGradient>
    <filter id="shadow" x="-20%" y="-20%" width="140%" height="140%">
      <feDropShadow dx="0" dy="12" stdDeviation="14" flood-color="#05070a" flood-opacity="0.38"/>
    </filter>
    <marker id="arrow-teal" markerWidth="10" markerHeight="10" refX="8" refY="5" orient="auto">
      <path d="M 0 0 L 10 5 L 0 10 z" fill="#3dd6d0"/>
    </marker>
    <marker id="arrow-gold" markerWidth="10" markerHeight="10" refX="8" refY="5" orient="auto">
      <path d="M 0 0 L 10 5 L 0 10 z" fill="#f5b94f"/>
    </marker>
    <marker id="arrow-coral" markerWidth="10" markerHeight="10" refX="8" refY="5" orient="auto">
      <path d="M 0 0 L 10 5 L 0 10 z" fill="#f17666"/>
    </marker>
    <style>
      .title { font: 700 34px Inter, ui-sans-serif, system-ui, sans-serif; fill: #f4f0e8; }
      .subtitle { font: 500 17px Inter, ui-sans-serif, system-ui, sans-serif; fill: #aeb8c5; }
      .label { font: 700 18px Inter, ui-sans-serif, system-ui, sans-serif; fill: #f4f0e8; }
      .small { font: 600 14px Inter, ui-sans-serif, system-ui, sans-serif; fill: #aeb8c5; }
      .tiny { font: 600 12px Inter, ui-sans-serif, system-ui, sans-serif; fill: #aeb8c5; }
      .mono { font: 700 13px ui-monospace, SFMono-Regular, Menlo, Consolas, monospace; fill: #f4f0e8; }
      .panel { fill: #17202c; stroke: #324254; stroke-width: 1.2; filter: url(#shadow); }
      .panel2 { fill: #1d2836; stroke: #3a4b61; stroke-width: 1.1; }
      .wire { fill: none; stroke-linecap: round; stroke-linejoin: round; }
    </style>
  </defs>
  <rect width="1280" height="640" fill="url(#bg)"/>

  <title>Drag-and-drop move handling flow</title>
  <text x="56" y="66" class="title">Drag-and-drop move handling</text>
  <text x="56" y="98" class="subtitle">Mouse input stays lightweight while the board object owns legality, captures, promotion, castling, checks, and turn changes.</text>

  
  <rect x="68" y="180" width="214" height="82" rx="10" class="panel2"/>
  <rect x="68" y="180" width="8" height="82" rx="4" fill="#3dd6d0"/>
  <text x="92" y="212" class="label">Mouse down</text>
  <text x="92" y="238" class="small">record drag_origin</text>
  <rect x="332" y="180" width="214" height="82" rx="10" class="panel2"/>
  <rect x="332" y="180" width="8" height="82" rx="4" fill="#73a7ff"/>
  <text x="356" y="212" class="label">Drag piece</text>
  <text x="356" y="238" class="small">remove from board map</text>
  <rect x="596" y="180" width="214" height="82" rx="10" class="panel2"/>
  <rect x="596" y="180" width="8" height="82" rx="4" fill="#f5b94f"/>
  <text x="620" y="212" class="label">Mouse up</text>
  <text x="620" y="238" class="small">convert pixels to grid</text>
  <rect x="860" y="180" width="214" height="82" rx="10" class="panel2"/>
  <rect x="860" y="180" width="8" height="82" rx="4" fill="#f17666"/>
  <text x="884" y="212" class="label">Legal target?</text>
  <text x="884" y="238" class="small">simulate if needed</text>
  <rect x="332" y="376" width="214" height="82" rx="10" class="panel2"/>
  <rect x="332" y="376" width="8" height="82" rx="4" fill="#7bd88f"/>
  <text x="356" y="408" class="label">move_piece</text>
  <text x="356" y="434" class="small">capture, promote, castle</text>
  <rect x="596" y="376" width="214" height="82" rx="10" class="panel2"/>
  <rect x="596" y="376" width="8" height="82" rx="4" fill="#b99cff"/>
  <text x="620" y="408" class="label">board.update</text>
  <text x="620" y="434" class="small">moves, checks, danger</text>
  <rect x="860" y="376" width="214" height="82" rx="10" class="panel2"/>
  <rect x="860" y="376" width="8" height="82" rx="4" fill="#3dd6d0"/>
  <text x="884" y="408" class="label">Next state</text>
  <text x="884" y="434" class="small">turn or restore piece</text>
  <path d="M 282 221 L 332 221" class="wire" stroke="#3dd6d0" stroke-width="3" marker-end="url(#arrow-teal)"/>
  <path d="M 546 221 L 596 221" class="wire" stroke="#73a7ff" stroke-width="3" marker-end="url(#arrow-teal)"/>
  <path d="M 810 221 L 860 221" class="wire" stroke="#f5b94f" stroke-width="3" marker-end="url(#arrow-gold)"/>
  <path d="M 967 262 C 967 330, 439 330, 439 376" class="wire" stroke="#7bd88f" stroke-width="3" marker-end="url(#arrow-teal)"/>
  <path d="M 546 417 L 596 417" class="wire" stroke="#7bd88f" stroke-width="3" marker-end="url(#arrow-teal)"/>
  <path d="M 810 417 L 860 417" class="wire" stroke="#b99cff" stroke-width="3" marker-end="url(#arrow-teal)"/>
  <path d="M 1074 221 C 1120 221, 1120 468, 1074 468" class="wire" stroke="#f17666" stroke-width="3" stroke-dasharray="9 8" marker-end="url(#arrow-coral)"/>

  <rect x="78" y="324" width="184" height="174" rx="16" class="panel"/>
  
  <g>
    <rect x="104" y="346" width="136" height="136"
          rx="12" fill="#0b1118" stroke="#3d4d60"/>
    <rect x="112" y="354" width="15" height="15" fill="#efe4cd"/>
    <rect x="127" y="354" width="15" height="15" fill="#496173"/>
    <rect x="142" y="354" width="15" height="15" fill="#efe4cd"/>
    <rect x="157" y="354" width="15" height="15" fill="#496173"/>
    <rect x="172" y="354" width="15" height="15" fill="#efe4cd"/>
    <rect x="187" y="354" width="15" height="15" fill="#496173"/>
    <rect x="202" y="354" width="15" height="15" fill="#efe4cd"/>
    <rect x="217" y="354" width="15" height="15" fill="#496173"/>
    <rect x="112" y="369" width="15" height="15" fill="#496173"/>
    <rect x="127" y="369" width="15" height="15" fill="#efe4cd"/>
    <rect x="142" y="369" width="15" height="15" fill="#496173"/>
    <rect x="157" y="369" width="15" height="15" fill="#efe4cd"/>
    <rect x="172" y="369" width="15" height="15" fill="#496173"/>
    <rect x="187" y="369" width="15" height="15" fill="#efe4cd"/>
    <rect x="202" y="369" width="15" height="15" fill="#496173"/>
    <rect x="217" y="369" width="15" height="15" fill="#efe4cd"/>
    <rect x="112" y="384" width="15" height="15" fill="#efe4cd"/>
    <rect x="127" y="384" width="15" height="15" fill="#496173"/>
    <rect x="142" y="384" width="15" height="15" fill="#efe4cd"/>
    <rect x="157" y="384" width="15" height="15" fill="#496173"/>
    <rect x="172" y="384" width="15" height="15" fill="#efe4cd"/>
    <rect x="187" y="384" width="15" height="15" fill="#496173"/>
    <rect x="202" y="384" width="15" height="15" fill="#efe4cd"/>
    <rect x="217" y="384" width="15" height="15" fill="#496173"/>
    <rect x="112" y="399" width="15" height="15" fill="#496173"/>
    <rect x="127" y="399" width="15" height="15" fill="#efe4cd"/>
    <rect x="142" y="399" width="15" height="15" fill="#496173"/>
    <rect x="157" y="399" width="15" height="15" fill="#efe4cd"/>
    <rect x="172" y="399" width="15" height="15" fill="#496173"/>
    <rect x="187" y="399" width="15" height="15" fill="#efe4cd"/>
    <rect x="202" y="399" width="15" height="15" fill="#496173"/>
    <rect x="217" y="399" width="15" height="15" fill="#efe4cd"/>
    <rect x="112" y="414" width="15" height="15" fill="#efe4cd"/>
    <rect x="127" y="414" width="15" height="15" fill="#496173"/>
    <rect x="142" y="414" width="15" height="15" fill="#efe4cd"/>
    <rect x="157" y="414" width="15" height="15" fill="#496173"/>
    <rect x="172" y="414" width="15" height="15" fill="#efe4cd"/>
    <rect x="187" y="414" width="15" height="15" fill="#496173"/>
    <rect x="202" y="414" width="15" height="15" fill="#efe4cd"/>
    <rect x="217" y="414" width="15" height="15" fill="#496173"/>
    <rect x="112" y="429" width="15" height="15" fill="#496173"/>
    <rect x="127" y="429" width="15" height="15" fill="#efe4cd"/>
    <rect x="142" y="429" width="15" height="15" fill="#496173"/>
    <rect x="157" y="429" width="15" height="15" fill="#efe4cd"/>
    <rect x="172" y="429" width="15" height="15" fill="#496173"/>
    <rect x="187" y="429" width="15" height="15" fill="#efe4cd"/>
    <rect x="202" y="429" width="15" height="15" fill="#496173"/>
    <rect x="217" y="429" width="15" height="15" fill="#efe4cd"/>
    <rect x="112" y="444" width="15" height="15" fill="#efe4cd"/>
    <rect x="127" y="444" width="15" height="15" fill="#496173"/>
    <rect x="142" y="444" width="15" height="15" fill="#efe4cd"/>
    <rect x="157" y="444" width="15" height="15" fill="#496173"/>
    <rect x="172" y="444" width="15" height="15" fill="#efe4cd"/>
    <rect x="187" y="444" width="15" height="15" fill="#496173"/>
    <rect x="202" y="444" width="15" height="15" fill="#efe4cd"/>
    <rect x="217" y="444" width="15" height="15" fill="#496173"/>
    <rect x="112" y="459" width="15" height="15" fill="#496173"/>
    <rect x="127" y="459" width="15" height="15" fill="#efe4cd"/>
    <rect x="142" y="459" width="15" height="15" fill="#496173"/>
    <rect x="157" y="459" width="15" height="15" fill="#efe4cd"/>
    <rect x="172" y="459" width="15" height="15" fill="#496173"/>
    <rect x="187" y="459" width="15" height="15" fill="#efe4cd"/>
    <rect x="202" y="459" width="15" height="15" fill="#496173"/>
    <rect x="217" y="459" width="15" height="15" fill="#efe4cd"/>
    <text x="119.5" y="364.5" text-anchor="middle" style="fill: #111820; font: 700 8px ui-monospace, SFMono-Regular, Menlo, Consolas, monospace;">R</text>
    <text x="134.5" y="364.5" text-anchor="middle" style="fill: #111820; font: 700 8px ui-monospace, SFMono-Regular, Menlo, Consolas, monospace;">N</text>
    <text x="149.5" y="364.5" text-anchor="middle" style="fill: #111820; font: 700 8px ui-monospace, SFMono-Regular, Menlo, Consolas, monospace;">B</text>
    <text x="164.5" y="364.5" text-anchor="middle" style="fill: #111820; font: 700 8px ui-monospace, SFMono-Regular, Menlo, Consolas, monospace;">Q</text>
    <text x="179.5" y="364.5" text-anchor="middle" style="fill: #111820; font: 700 8px ui-monospace, SFMono-Regular, Menlo, Consolas, monospace;">K</text>
    <text x="194.5" y="364.5" text-anchor="middle" style="fill: #111820; font: 700 8px ui-monospace, SFMono-Regular, Menlo, Consolas, monospace;">B</text>
    <text x="209.5" y="364.5" text-anchor="middle" style="fill: #111820; font: 700 8px ui-monospace, SFMono-Regular, Menlo, Consolas, monospace;">N</text>
    <text x="224.5" y="364.5" text-anchor="middle" style="fill: #111820; font: 700 8px ui-monospace, SFMono-Regular, Menlo, Consolas, monospace;">R</text>
    <text x="179.5" y="409.5" text-anchor="middle" style="fill: #111820; font: 700 8px ui-monospace, SFMono-Regular, Menlo, Consolas, monospace;">P</text>
    <text x="179.5" y="424.5" text-anchor="middle" style="fill: #f9f4e9; font: 700 8px ui-monospace, SFMono-Regular, Menlo, Consolas, monospace;">P</text>
    <text x="149.5" y="439.5" text-anchor="middle" style="fill: #f9f4e9; font: 700 8px ui-monospace, SFMono-Regular, Menlo, Consolas, monospace;">B</text>
    <text x="194.5" y="439.5" text-anchor="middle" style="fill: #f9f4e9; font: 700 8px ui-monospace, SFMono-Regular, Menlo, Consolas, monospace;">N</text>
    <text x="119.5" y="454.5" text-anchor="middle" style="fill: #f9f4e9; font: 700 8px ui-monospace, SFMono-Regular, Menlo, Consolas, monospace;">P</text>
    <text x="134.5" y="454.5" text-anchor="middle" style="fill: #f9f4e9; font: 700 8px ui-monospace, SFMono-Regular, Menlo, Consolas, monospace;">P</text>
    <text x="149.5" y="454.5" text-anchor="middle" style="fill: #f9f4e9; font: 700 8px ui-monospace, SFMono-Regular, Menlo, Consolas, monospace;">P</text>
    <text x="194.5" y="454.5" text-anchor="middle" style="fill: #f9f4e9; font: 700 8px ui-monospace, SFMono-Regular, Menlo, Consolas, monospace;">P</text>
    <text x="209.5" y="454.5" text-anchor="middle" style="fill: #f9f4e9; font: 700 8px ui-monospace, SFMono-Regular, Menlo, Consolas, monospace;">P</text>
    <text x="224.5" y="454.5" text-anchor="middle" style="fill: #f9f4e9; font: 700 8px ui-monospace, SFMono-Regular, Menlo, Consolas, monospace;">P</text>
    <text x="119.5" y="469.5" text-anchor="middle" style="fill: #f9f4e9; font: 700 8px ui-monospace, SFMono-Regular, Menlo, Consolas, monospace;">R</text>
    <text x="134.5" y="469.5" text-anchor="middle" style="fill: #f9f4e9; font: 700 8px ui-monospace, SFMono-Regular, Menlo, Consolas, monospace;">N</text>
    <text x="149.5" y="469.5" text-anchor="middle" style="fill: #f9f4e9; font: 700 8px ui-monospace, SFMono-Regular, Menlo, Consolas, monospace;">B</text>
    <text x="164.5" y="469.5" text-anchor="middle" style="fill: #f9f4e9; font: 700 8px ui-monospace, SFMono-Regular, Menlo, Consolas, monospace;">Q</text>
    <text x="179.5" y="469.5" text-anchor="middle" style="fill: #f9f4e9; font: 700 8px ui-monospace, SFMono-Regular, Menlo, Consolas, monospace;">K</text>
    <text x="194.5" y="469.5" text-anchor="middle" style="fill: #f9f4e9; font: 700 8px ui-monospace, SFMono-Regular, Menlo, Consolas, monospace;">B</text>
    <text x="224.5" y="469.5" text-anchor="middle" style="fill: #f9f4e9; font: 700 8px ui-monospace, SFMono-Regular, Menlo, Consolas, monospace;">R</text>
    
  <rect x="172" y="414" width="15" height="15"
        fill="#f5b94f" opacity="0.35"/>
  <path d="M 179.5 451.5 L 179.5 421.5"
        class="wire" stroke="#f5b94f" stroke-width="5" marker-end="url(#arrow-gold)"/>
  </g>
  <text x="170" y="542" text-anchor="middle" class="mono">e2 -&gt; e4</text>

  <rect x="82" y="548" width="1058" height="48" rx="14" fill="#101923" stroke="#34475b"/>
  <text x="112" y="579" class="small">Illegal drops call _restore_dragged_piece; legal moves switch turn and update checkmate, stalemate, and draw state.</text>

</svg>
